<svg height="512" viewBox="0 0 64 64" width="512" xmlns="http://www.w3.org/2000/svg"><g id="Flat"><g id="Stroke_copy_2" data-name="Stroke copy 2"><g><g><path d="m35 3h-6a2 2 0 0 0 0 4h1v8h4v-8h1a2 2 0 0 0 0-4z" fill="#a1d51c"/><path d="m35 57h-1v-8h-4v8h-1a2 2 0 0 0 0 4h6a2 2 0 0 0 0-4z" fill="#a1d51c"/><path d="m7 35v-1h8v-4h-8v-1a2 2 0 0 0 -4 0v6a2 2 0 0 0 4 0z" fill="#a1d51c"/><path d="m59 27a2 2 0 0 0 -2 2v1h-8v4h8v1a2 2 0 0 0 4 0v-6a2 2 0 0 0 -2-2z" fill="#a1d51c"/><path d="m22.1 8.849a2 2 0 1 0 -2-3.464l-5.2 3a2 2 0 1 0 2 3.464l.866-.5 4 6.929 3.464-2-4-6.929z" fill="#a1d51c"/><path d="m47.1 52.151-.866.5-4-6.929-3.464 2 4 6.929-.866.5a2 2 0 1 0 2 3.464l5.2-3a2 2 0 0 0 -2-3.464z" fill="#a1d51c"/><path d="m11.349 46.232 6.929-4-2-3.464-6.929 4-.5-.866a2 2 0 1 0 -3.464 2l3 5.2a2 2 0 0 0 3.464-2z" fill="#a1d51c"/><path d="m52.651 17.768-6.929 4 2 3.464 6.929-4 .5.866a2 2 0 0 0 3.464-2l-3-5.2a2 2 0 1 0 -3.464 2z" fill="#a1d51c"/><path d="m6.117 22.83a2 2 0 0 0 2.732-.73l.5-.866 6.929 4 2-3.464-6.929-4 .5-.866a2 2 0 0 0 -3.464-2l-3 5.2a2 2 0 0 0 .732 2.726z" fill="#a1d51c"/><path d="m57.883 41.17a2 2 0 0 0 -2.732.732l-.5.866-6.929-4-2 3.464 6.929 4-.5.866a2 2 0 1 0 3.464 2l3-5.2a2 2 0 0 0 -.732-2.728z" fill="#a1d51c"/><path d="m21.768 45.722-4 6.929-.866-.5a2 2 0 0 0 -2 3.464l5.2 3a2 2 0 1 0 2-3.464l-.866-.5 4-6.929z" fill="#a1d51c"/><path d="m42.232 18.278 4-6.929.866.5a2 2 0 0 0 2-3.464l-5.2-3a2 2 0 1 0 -2 3.464l.866.5-4 6.929z" fill="#a1d51c"/><g fill="#7ab92d"><path d="m30 49v3a18.052 18.052 0 0 0 4-.461v-2.539z"/><path d="m15 30h-2.539a18.052 18.052 0 0 0 -.461 4h3z"/><path d="m38.768 47.722.851 1.474a18.055 18.055 0 0 0 3.161-2.525l-.548-.949z"/><path d="m16.278 38.768-3.04 1.755a17.919 17.919 0 0 0 1.845 3.553l3.195-1.844z"/><path d="m18.278 21.768-.949-.548a18.055 18.055 0 0 0 -2.529 3.161l1.474.851z"/><path d="m21.768 45.722-1.844 3.2a17.919 17.919 0 0 0 3.553 1.845l1.755-3.04z"/><path d="m29 7h1v8h4v-2.555a3.982 3.982 0 0 1 -2-3.445v-4h-1a1.993 1.993 0 0 1 -1.99-2h-.01a2 2 0 0 0 0 4z"/><path d="m29 57a2 2 0 0 0 0 4h6a2 2 0 0 0 2-2h-6a2 2 0 0 1 -2-2z"/><path d="m7 35a2 2 0 0 1 -2-2v-6a2 2 0 0 0 -2 2v6a2 2 0 0 0 4 0z"/><path d="m59 32.893v-.893h-4a3.982 3.982 0 0 1 -3.445-2h-2.555v4h8v1a2 2 0 0 0 4 0v-.01a2.12 2.12 0 0 1 -.336-.017 2.075 2.075 0 0 1 -1.664-2.08z"/><path d="m16.9 11.849.866-.5 4 6.929 3.464-2-.91-1.578a3.979 3.979 0 0 1 -2.552-1.885l-2-3.464-.866.5a2 2 0 0 1 -2.826-.915 1.882 1.882 0 0 1 -.122-1.156l-1.054.605a2 2 0 1 0 2 3.464z"/><path d="m10.385 47.1-3-5.2a1.977 1.977 0 0 1 -.259-.992 1.979 1.979 0 0 0 -1.009.26 2 2 0 0 0 -.732 2.732l3 5.2a1.994 1.994 0 0 0 3.724-1.008 1.994 1.994 0 0 1 -1.724-.992z"/><path d="m56.094 19-.443-.767-3.464 2a3.987 3.987 0 0 1 -3.889.049l-2.576 1.487 2 3.464 6.929-4 .5.866a2 2 0 0 0 3.464-2l-.071-.122a2.088 2.088 0 0 1 -2.45-.977z"/><path d="m6.117 22.83a2 2 0 0 0 2.732-.73l.01-.017a2 2 0 0 1 -1.474-2.983l2.99-5.179a2 2 0 0 0 -1.99.983l-3 5.2a2 2 0 0 0 .732 2.726z"/><path d="m55.615 46.1a2 2 0 0 1 -2.732.732 1.978 1.978 0 0 1 -.4-.311l-.334.579a2 2 0 1 0 3.464 2l3-5.2a2 2 0 0 0 -.335-2.421z"/><path d="m16.9 53.615a1.994 1.994 0 0 1 -.992-1.724 1.994 1.994 0 0 0 -1.008 3.724l5.2 3a2 2 0 0 0 2.732-.732 1.979 1.979 0 0 0 .26-1.009 1.977 1.977 0 0 1 -.992-.259z"/><path d="m41.9 8.849.866.5-4 6.929 3.464 2 1.489-2.578a3.987 3.987 0 0 1 .049-3.889l2-3.464-.866-.5a1.993 1.993 0 0 1 -.876-2.392l-.126-.07a2 2 0 1 0 -2 3.464z"/><path d="m44.9 56.615a2 2 0 0 1 -2.983-1.474l-.017.01a2 2 0 1 0 2 3.464l5.2-3a2 2 0 0 0 .983-1.99z"/></g></g><circle cx="32" cy="32" fill="#c4f236" r="18"/><path d="m42 41a17.969 17.969 0 0 1 -16.157-25.9 17.989 17.989 0 1 0 22.314 24.8 17.911 17.911 0 0 1 -6.157 1.1z" fill="#a1d51c"/><path d="m37 33a4 4 0 0 1 -4 4 4 4 0 0 0 -4 4 4 4 0 0 0 4 4 12 12 0 0 0 12-12 4 4 0 0 0 -4-4 4 4 0 0 0 -4 4z" fill="#a1d51c"/><circle cx="32" cy="22" fill="#a1d51c" r="4"/><g fill="#7ab92d"><path d="m23 31a2 2 0 0 0 -2-2 2 2 0 0 0 -2 2 6 6 0 0 0 6 6 2 2 0 0 0 2-2 2 2 0 0 0 -2-2 2 2 0 0 1 -2-2z"/><path d="m41.93 41a17.886 17.886 0 0 1 -10.675-3.58 3.991 3.991 0 0 0 1.745 7.58 11.959 11.959 0 0 0 8.93-4z"/><path d="m32 18a3.994 3.994 0 0 0 -3.64 2.36 3.985 3.985 0 0 1 5.28 5.28 3.995 3.995 0 0 0 -1.64-7.64z"/><path d="m41 29a3.975 3.975 0 0 0 -2.707 1.071 3.96 3.96 0 0 1 4.707 3.929 11.979 11.979 0 0 1 -5.673 10.183 12 12 0 0 0 7.673-11.183 4 4 0 0 0 -4-4z"/></g><path d="m25 33a2 2 0 0 1 -2-2 2 2 0 0 0 -3.82-.82 1.992 1.992 0 0 1 2.82 1.82 2 2 0 0 0 2 2 1.992 1.992 0 0 1 1.82 2.82 2 2 0 0 0 -.82-3.82z" fill="#5ba006"/><path d="m33.06 42a1.026 1.026 0 0 1 -1.03-.993.975.975 0 0 1 .962-1.007 7.032 7.032 0 0 0 7.008-7 1 1 0 0 1 2 0 9.024 9.024 0 0 1 -8.933 9z" fill="#5ba006"/><circle cx="32" cy="22" fill="#5ba006" r="1"/><circle cx="32" cy="31" fill="#a1d51c" r="1"/><circle cx="42" cy="24" fill="#a1d51c" r="1"/><circle cx="21" cy="25" fill="#7ab92d" r="1"/><circle cx="27" cy="29" fill="#a1d51c" r="1"/><circle cx="23" cy="21" fill="#7ab92d" r="1"/><circle cx="24" cy="41" fill="#7ab92d" r="1"/></g></g></g></svg>